<svg width="639" height="262" viewBox="0 0 639 262" fill="none" xmlns="http://www.w3.org/2000/svg">
<path d="M242.751 242.329V242.356L242.754 242.383C242.886 243.588 242.555 244.796 241.831 245.755C241.114 246.704 240.069 247.334 238.913 247.519H198.83C197.674 247.334 196.629 246.704 195.912 245.755C195.188 244.796 194.856 243.588 194.989 242.383L194.992 242.356V242.329V30.2261V30.1971L194.989 30.1683C194.848 28.9557 195.175 27.7357 195.9 26.7658C196.617 25.8064 197.667 25.1665 198.831 24.9745H238.912C240.07 25.1665 241.116 25.8024 241.832 26.7556C242.556 27.7194 242.887 28.9323 242.754 30.1406L242.751 30.1679V30.1955V242.329Z" fill="white" stroke="#121212"/>
<path d="M242.751 242.329V242.356L242.754 242.383C242.886 243.588 242.555 244.796 241.831 245.755C241.114 246.704 240.069 247.334 238.913 247.519H198.83C197.674 247.334 196.629 246.704 195.912 245.755C195.188 244.796 194.856 243.588 194.989 242.383L194.992 242.356V242.329V30.2261V30.1971L194.989 30.1683C194.848 28.9557 195.175 27.7357 195.9 26.7658C196.617 25.8064 197.667 25.1665 198.831 24.9745H238.912C240.07 25.1665 241.116 25.8024 241.832 26.7556C242.556 27.7194 242.887 28.9323 242.754 30.1406L242.751 30.1679V30.1955V242.329Z" fill="white" stroke="#121212"/>
<path d="M194.992 30.5932V30.5656L194.989 30.5383C194.856 29.33 195.187 28.1171 195.911 27.1533C196.627 26.2001 197.672 25.5642 198.831 25.3723H207.099V247.917H198.831C197.672 247.725 196.627 247.089 195.911 246.136C195.187 245.172 194.856 243.959 194.989 242.751L194.992 242.723V242.696V30.5932Z" fill="white" stroke="#121212"/>
<path d="M194.992 210.348V203.027H242.751V210.348H194.992Z" fill="white" stroke="#121212"/>
<path d="M194.992 223.442V216.121H242.751V223.442H194.992Z" fill="white" stroke="#121212"/>
<path d="M194.992 210.103V203.027H207.099V210.103H194.992Z" fill="white" stroke="#121212"/>
<path d="M194.992 223.442V216.121H207.099V223.442H194.992Z" fill="white" stroke="#121212"/>
<path d="M194.992 109.697V44.8295H242.751V109.697H194.992Z" fill="white" stroke="#121212"/>
<path d="M194.992 109.697V44.8295H207.099V109.697H194.992Z" fill="white" stroke="#121212"/>
<path d="M194.992 93.5434V65.3575H242.751V93.5434H194.992Z" fill="white" stroke="#121212"/>
<path d="M194.992 93.6352V65.3575H207.099V93.6352H194.992Z" fill="white" stroke="#121212"/>
<path d="M203.932 218.453L359.439 220.758C359.421 220.787 359.403 220.817 359.385 220.847C359.056 221.398 358.604 222.197 358.105 223.202C357.107 225.21 355.917 228.044 355.156 231.344C353.691 237.703 353.812 245.836 360.003 253.087H204.691L203.932 218.453Z" fill="white" stroke="#121212"/>
<path d="M356.834 225.771C239.422 218.287 209.614 235.006 204.02 239.055L205.981 216.866L359.396 220.651C358.128 222.104 357.245 223.866 356.834 225.771Z" fill="white" stroke="#121212"/>
<path d="M209.703 211.287H362.993V219.74H211.289C211.275 219.739 211.256 219.738 211.233 219.736C211.182 219.733 211.111 219.73 211.023 219.729C210.846 219.727 210.598 219.735 210.301 219.772C209.711 219.847 208.918 220.041 208.122 220.519C206.494 221.499 204.994 223.583 204.994 227.827V232.508V243.063C204.994 247.308 206.494 249.385 208.124 250.357C208.92 250.832 209.713 251.021 210.304 251.092C210.6 251.128 210.848 251.135 211.025 251.132C211.114 251.131 211.185 251.127 211.236 251.124C211.258 251.122 211.276 251.121 211.291 251.119H363.113V259.573H209.823H209.804L209.785 259.574C208.038 259.709 206.292 259.307 204.772 258.419C203.251 257.532 202.026 256.2 201.256 254.594L201.246 254.574L201.235 254.555C194.822 243.759 194.391 234.573 195.909 227.683C197.426 220.79 200.903 216.157 202.373 214.493L202.634 214.227L202.66 214.201L202.682 214.171C202.775 214.044 202.881 213.928 202.998 213.825L203.008 213.816L203.018 213.806C203.9 212.945 204.947 212.277 206.092 211.843C207.237 211.41 208.456 211.221 209.676 211.286L209.689 211.287H209.703Z" fill="white" stroke="#121212"/>
<path d="M237.43 251.119V259.573H209.823H209.804L209.785 259.574C208.038 259.709 206.292 259.307 204.772 258.419C203.251 257.532 202.026 256.2 201.256 254.594L201.246 254.574L201.235 254.555C194.822 243.759 194.391 234.573 195.909 227.683C197.426 220.79 200.903 216.157 202.373 214.493L202.634 214.227L202.66 214.201L202.682 214.171C202.775 214.044 202.881 213.928 202.998 213.825L203.008 213.816L203.018 213.806C203.9 212.945 204.947 212.277 206.092 211.843C207.237 211.41 208.456 211.221 209.676 211.286L209.689 211.287H209.703H237.309V219.679H211.289C211.275 219.678 211.256 219.676 211.233 219.675C211.182 219.672 211.111 219.668 211.023 219.668C210.846 219.666 210.598 219.674 210.301 219.711C209.711 219.786 208.918 219.979 208.122 220.458C206.494 221.438 204.994 223.521 204.994 227.766V243.063C204.994 247.308 206.494 249.385 208.124 250.357C208.92 250.832 209.713 251.021 210.304 251.092C210.6 251.128 210.848 251.135 211.025 251.132C211.114 251.131 211.185 251.127 211.236 251.124C211.258 251.122 211.276 251.121 211.291 251.119H237.43Z" fill="white" stroke="#121212"/>
<path d="M265.57 250.251C265.643 250.508 265.708 250.747 265.764 250.964L258.343 245.326L257.926 245.009L257.629 245.441L252.416 253.012C252.426 249.934 251.841 246.878 250.688 244.02C249.466 240.99 247.635 238.257 245.318 235.995C249.174 235.802 253.041 236.046 256.847 236.723C258.442 237.394 259.823 238.663 261.003 240.236C262.194 241.823 263.158 243.69 263.915 245.487C264.671 247.281 265.215 248.989 265.57 250.251Z" fill="white" stroke="#121212"/>
<path d="M201.132 117.5L306.497 119.797C306.476 119.848 306.454 119.902 306.431 119.958C306.208 120.507 305.901 121.305 305.562 122.307C304.885 124.31 304.078 127.135 303.562 130.421C302.566 136.761 302.641 144.878 306.873 152.129H201.658L201.132 117.5Z" fill="white" stroke="#121212"/>
<path d="M304.71 124.797C227.187 117.548 205.848 133.195 201.215 137.804L202.626 115.854L306.487 119.689C305.572 121.256 304.968 122.992 304.71 124.797Z" fill="white" stroke="#121212"/>
<path d="M204.893 110.33H308.884V118.783H206.007C205.998 118.782 205.988 118.781 205.978 118.78C205.937 118.776 205.881 118.772 205.813 118.771C205.677 118.769 205.49 118.778 205.269 118.819C204.824 118.902 204.245 119.113 203.676 119.615C202.535 120.621 201.537 122.692 201.537 126.87V131.551V142.105C201.537 146.282 202.535 148.348 203.677 149.346C204.248 149.845 204.827 150.052 205.273 150.131C205.494 150.17 205.681 150.178 205.817 150.175C205.885 150.173 205.94 150.169 205.981 150.165C205.991 150.164 206.001 150.163 206.009 150.162H309.034V158.585H205.057C203.742 158.51 202.487 157.996 201.486 157.12C200.481 156.241 199.79 155.047 199.521 153.723L199.512 153.678L199.495 153.635C190.765 132.016 198.367 116.732 200.276 113.414L200.328 113.324L200.34 113.22C200.346 113.165 200.349 113.109 200.35 113.053L200.536 112.758L200.536 112.758L200.541 112.75C200.998 111.996 201.639 111.377 202.4 110.953C203.162 110.529 204.018 110.314 204.884 110.329L204.884 110.33H204.893Z" fill="white" stroke="#121212"/>
<path d="M206.007 118.722C205.998 118.721 205.988 118.72 205.978 118.719C205.937 118.715 205.881 118.711 205.813 118.71C205.677 118.708 205.49 118.717 205.269 118.758C204.824 118.841 204.245 119.052 203.676 119.554C202.535 120.56 201.537 122.631 201.537 126.809V142.105C201.537 146.282 202.535 148.348 203.677 149.346C204.248 149.845 204.827 150.052 205.273 150.131C205.494 150.17 205.681 150.178 205.817 150.175C205.885 150.173 205.94 150.169 205.981 150.165C205.991 150.164 206.001 150.163 206.009 150.162H223.632V158.585H205.057C203.742 158.51 202.487 157.996 201.486 157.12C200.481 156.241 199.79 155.047 199.521 153.723L199.512 153.678L199.495 153.635C190.765 132.016 198.367 116.732 200.276 113.414L200.328 113.324L200.34 113.22C200.346 113.165 200.349 113.109 200.35 113.053L200.536 112.758L200.536 112.758L200.541 112.75C200.998 111.996 201.639 111.377 202.4 110.953C203.162 110.529 204.018 110.314 204.884 110.329L204.884 110.33H204.893H223.512V118.722H206.007Z" fill="white" stroke="#121212"/>
<path d="M242.649 149.25C242.674 149.38 242.697 149.506 242.719 149.626L238.124 144.436L237.619 143.866L237.297 144.555L234.031 151.534C233.867 146.069 232.687 141.947 231.472 139.102C230.785 137.493 230.087 136.294 229.557 135.494C229.442 135.32 229.335 135.165 229.238 135.028C231.787 134.854 234.35 135.096 236.828 135.747C237.856 136.396 238.774 137.631 239.57 139.205C240.376 140.795 241.027 142.669 241.537 144.471C242.047 146.271 242.412 147.985 242.649 149.25Z" fill="white" stroke="#121212"/>
<path d="M203.932 13.5706L359.439 15.7838C359.421 15.8128 359.403 15.8426 359.385 15.8732C359.056 16.4232 358.604 17.2229 358.105 18.2275C357.107 20.2352 355.917 23.0692 355.156 26.3699C353.691 32.7288 353.812 40.8614 360.003 48.1125H204.691L203.932 13.5706Z" fill="white" stroke="#121212"/>
<path d="M356.834 20.7965C239.422 13.3128 209.614 30.0313 204.02 34.0807L205.981 11.8921L359.396 15.6766C358.128 17.13 357.245 18.8921 356.834 20.7965Z" fill="white" stroke="#121212"/>
<path d="M209.703 6.31271H362.993V14.7966H211.291C211.276 14.7953 211.258 14.7938 211.236 14.7922C211.185 14.7887 211.114 14.7851 211.025 14.7838C210.848 14.7812 210.6 14.7878 210.304 14.8236C209.713 14.8951 208.92 15.0844 208.124 15.5593C206.494 16.5313 204.994 18.6083 204.994 22.8531V27.5339V38.0885C204.994 42.3333 206.494 44.4103 208.124 45.3823C208.92 45.8572 209.713 46.0465 210.304 46.118C210.6 46.1538 210.848 46.1604 211.025 46.1578C211.114 46.1565 211.185 46.1529 211.236 46.1494C211.258 46.1478 211.276 46.1463 211.291 46.145H363.113V54.5983H209.823H209.804L209.785 54.5998C208.038 54.7342 206.292 54.3322 204.772 53.4451C203.251 52.5578 202.026 51.2258 201.256 49.62L201.246 49.6L201.235 49.581C194.822 38.7844 194.391 29.5987 195.909 22.7082C197.426 15.8153 200.903 11.183 202.373 9.51904L202.634 9.25306L202.66 9.22663L202.682 9.19667C202.775 9.06944 202.881 8.95328 202.998 8.85028L203.008 8.84142L203.018 8.83203C203.9 7.97028 204.947 7.30238 206.092 6.86912C207.237 6.43586 208.456 6.24631 209.676 6.31198L209.689 6.31271H209.703Z" fill="white" stroke="#121212"/>
<path d="M237.43 46.145V54.5983H209.823H209.804L209.785 54.5998C208.038 54.7342 206.292 54.3322 204.772 53.4451C203.251 52.5578 202.026 51.2258 201.256 49.62L201.246 49.6L201.235 49.581C194.822 38.7844 194.391 29.5987 195.909 22.7082C197.426 15.8153 200.903 11.183 202.373 9.51904L202.634 9.25306L202.66 9.22663L202.682 9.19667C202.775 9.06944 202.881 8.95328 202.998 8.85028L203.008 8.84142L203.018 8.83203C203.9 7.97028 204.947 7.30238 206.092 6.86912C207.237 6.43586 208.456 6.24631 209.676 6.31198L209.689 6.31271H209.703H237.309V14.7966H211.291C211.276 14.7953 211.258 14.7938 211.236 14.7922C211.185 14.7887 211.114 14.7851 211.026 14.7837C210.849 14.7809 210.601 14.7873 210.305 14.8226C209.715 14.893 208.922 15.08 208.126 15.5507C206.495 16.5142 204.994 18.5761 204.994 22.7919V38.0885C204.994 42.3333 206.494 44.4103 208.124 45.3823C208.92 45.8572 209.713 46.0465 210.304 46.118C210.6 46.1538 210.848 46.1604 211.025 46.1578C211.114 46.1565 211.185 46.1529 211.236 46.1494C211.258 46.1478 211.276 46.1463 211.291 46.145H237.43Z" fill="white" stroke="#121212"/>
<path d="M265.57 45.2762C265.643 45.5342 265.708 45.7732 265.764 45.9902L258.343 40.352L257.926 40.0351L257.629 40.4666L252.416 48.0376C252.426 44.9599 251.841 41.9041 250.688 39.0461C249.466 36.0159 247.635 33.2831 245.318 31.0206C249.174 30.8275 253.041 31.0715 256.847 31.7489C258.442 32.4193 259.823 33.6886 261.003 35.2618C262.194 36.8487 263.158 38.7161 263.915 40.5122C264.671 42.3063 265.215 44.015 265.57 45.2762Z" fill="white" stroke="#121212"/>
<path d="M421.057 260.779L394.822 261.487L388.085 9.11363L414.35 8.40632L421.057 260.779ZM396.149 20.0742C395.936 20.8113 395.874 21.5846 395.967 22.3464C395.915 23.1122 396.017 23.881 396.269 24.6054C396.527 25.3461 396.935 26.0241 397.468 26.595C398 27.1659 398.645 27.6169 399.361 27.9183C400.078 28.2197 400.848 28.3646 401.624 28.3432C402.399 28.3218 403.161 28.1347 403.86 27.7943C404.559 27.4539 405.179 26.9681 405.68 26.3688C406.181 25.7696 406.553 25.0703 406.77 24.3165C406.983 23.5794 407.045 22.8061 406.952 22.0443C407.004 21.2785 406.902 20.5096 406.65 19.7853C406.392 19.0446 405.984 18.3666 405.451 17.7957C404.919 17.2248 404.274 16.7738 403.557 16.4724C402.841 16.171 402.07 16.0261 401.295 16.0475C400.52 16.0689 399.758 16.256 399.059 16.5964C398.36 16.9368 397.74 17.4226 397.239 18.0219C396.738 18.6211 396.366 19.3204 396.149 20.0742Z" fill="white" stroke="#121212"/>
<path d="M422.057 260.508L415.23 8.38004L424.962 8.13035L431.788 260.259L422.057 260.508Z" fill="white" stroke="#121212"/>
<path d="M388.785 37.7141L388.713 35.6867L403.575 35.14L403.647 37.1674L388.785 37.7141Z" fill="white" stroke="#121212"/>
<path d="M389.066 46.3858L388.994 44.3584L399.35 43.9775L399.422 46.0049L389.066 46.3858Z" fill="white" stroke="#121212"/>
<path d="M389.401 55.0871L389.329 53.0597L404.191 52.513L404.263 54.5404L389.401 55.0871Z" fill="white" stroke="#121212"/>
<path d="M389.306 66.7999L389.234 64.7726L404.096 64.2259L404.168 66.2532L389.306 66.7999Z" fill="white" stroke="#121212"/>
<path d="M389.647 75.5011L389.575 73.4737L399.932 73.0928L400.004 75.1202L389.647 75.5011Z" fill="white" stroke="#121212"/>
<path d="M389.952 84.1729L389.88 82.1455L404.743 81.5988L404.815 83.6262L389.952 84.1729Z" fill="white" stroke="#121212"/>
<path d="M390.415 98.0661L390.343 96.0387L405.205 95.492L405.277 97.5194L390.415 98.0661Z" fill="white" stroke="#121212"/>
<path d="M390.755 106.737L390.683 104.709L401.04 104.328L401.112 106.356L390.755 106.737Z" fill="white" stroke="#121212"/>
<path d="M391.06 115.408L390.988 113.381L405.851 112.834L405.923 114.862L391.06 115.408Z" fill="white" stroke="#121212"/>
<path d="M391.019 127.792L390.947 125.764L405.809 125.218L405.881 127.245L391.019 127.792Z" fill="white" stroke="#121212"/>
<path d="M391.329 136.463L391.257 134.436L401.614 134.055L401.686 136.083L391.329 136.463Z" fill="white" stroke="#121212"/>
<path d="M391.635 145.166L391.563 143.138L406.426 142.592L406.498 144.619L391.635 145.166Z" fill="white" stroke="#121212"/>
<path d="M391.631 158.618L391.559 156.591L406.421 156.044L406.493 158.071L391.631 158.618Z" fill="white" stroke="#121212"/>
<path d="M391.911 167.259L391.839 165.232L402.196 164.851L402.268 166.878L391.911 167.259Z" fill="white" stroke="#121212"/>
<path d="M392.246 175.96L392.174 173.933L407.037 173.386L407.109 175.414L392.246 175.96Z" fill="white" stroke="#121212"/>
<path d="M392.867 194.312L392.795 192.284L407.658 191.738L407.73 193.765L392.867 194.312Z" fill="white" stroke="#121212"/>
<path d="M393.209 203.013L393.137 200.986L403.493 200.605L403.565 202.632L393.209 203.013Z" fill="white" stroke="#121212"/>
<path d="M393.514 211.685L393.442 209.657L408.304 209.111L408.376 211.138L393.514 211.685Z" fill="white" stroke="#121212"/>
<path d="M393.442 223.213L393.37 221.186L408.232 220.639L408.304 222.666L393.442 223.213Z" fill="white" stroke="#121212"/>
<path d="M393.754 231.915L393.682 229.888L404.038 229.507L404.11 231.534L393.754 231.915Z" fill="white" stroke="#121212"/>
<path d="M394.059 240.587L393.987 238.56L408.849 238.013L408.921 240.04L394.059 240.587Z" fill="white" stroke="#121212"/>
<path d="M91.9304 259.297L91.9188 259.297C76.895 259.498 61.9279 257.381 47.527 253.019C33.624 248.406 20.8105 240.911 9.89533 231.006L9.88813 230.999L9.88068 230.993C6.98759 228.566 4.61541 225.559 2.91208 222.158L2.91054 222.155C1.35599 219.103 0.530007 215.721 0.500034 212.283C0.478318 206.965 2.52518 201.856 6.19095 198.072L6.19641 198.066L6.20169 198.06C8.01907 196.062 10.2333 194.482 12.6967 193.423C15.16 192.365 17.8162 191.853 20.4886 191.921L20.497 191.922L20.5054 191.922C24.7651 191.887 28.9034 193.371 32.203 196.117C40.3043 203.045 49.3317 208.766 59.0148 213.109L59.0248 213.114L59.035 213.118C69.5067 217.276 80.6943 219.244 91.9302 218.905C100.181 218.996 108.381 217.588 116.144 214.745C122.842 212.387 128.941 208.544 134.001 203.495C136.163 201.368 137.883 198.822 139.06 196.008C140.236 193.195 140.846 190.171 140.853 187.115C141.028 180.293 138.73 173.642 134.395 168.432L134.385 168.421L134.376 168.411C128.933 162.588 122.196 158.179 114.731 155.555C103.954 151.56 92.7646 148.831 81.3791 147.422C69.9287 145.828 58.6997 142.882 47.9193 138.642L47.9181 138.641C39.057 135.184 30.8972 130.094 23.8474 123.627C17.4971 117.678 12.5286 110.363 9.30366 102.214C5.91218 93.3995 4.23905 83.9975 4.37781 74.5323L4.37796 74.5217L4.37767 74.5111C3.98413 60.3387 8.10721 46.418 16.1295 34.8291C24.2552 23.6633 35.2614 15.0084 47.9257 9.82425L47.9286 9.82305C61.9968 3.96106 77.0799 1.04021 92.2798 1.23419L92.2798 1.23432L92.2911 1.23421C106.72 1.09236 121.067 3.45204 134.717 8.21224L134.724 8.21454C146.316 12.068 157.105 18.0743 166.547 25.9297L166.552 25.9342C173.316 31.3988 176.616 37.5978 176.617 44.6325C176.593 47.2486 176.062 49.834 175.056 52.2409C174.049 54.6482 172.587 56.8295 170.752 58.6603L170.739 58.673L170.727 58.6866C169.005 60.6717 166.888 62.2609 164.518 63.3491C162.147 64.4373 159.577 65 156.977 64.9999L156.968 65.0001C153.593 65.0574 150.298 63.9549 147.613 61.8694C143.032 57.9629 137.937 54.7275 132.475 52.2575C125.934 49.1957 119.167 46.6606 112.236 44.6755C97.2561 40.2553 81.3092 40.5778 66.5138 45.5999L66.5058 45.6026L66.498 45.6055C60.1605 47.9972 54.8185 51.3661 51.0583 55.8477C47.293 60.3352 45.1339 65.9151 45.1321 72.6806C44.8985 79.3216 47.1543 85.806 51.4447 90.8197L51.4528 90.8293L51.4615 90.8384C56.444 96.1007 62.6597 99.9887 69.5252 102.136C78.6761 105.253 88.0279 107.722 97.5135 109.525L97.5192 109.526C110.117 111.771 122.549 114.893 134.727 118.871L134.733 118.873C144.3 121.853 153.281 126.515 161.268 132.648C168.166 138.156 173.549 145.387 176.893 153.639C180.662 163.493 182.46 174.015 182.179 184.586L182.178 184.599L182.179 184.611C182.521 199.009 178.064 213.101 169.533 224.59C160.913 235.987 149.51 244.887 136.461 250.404L136.459 250.404C122.366 256.425 107.213 259.451 91.9304 259.297Z" fill="white" stroke="#121212"/>
<path d="M45.5 70.0058C45.5849 77.2227 45.9031 84.5181 51.3149 90.6982H29H5.91198L4.5 83.4517V68.0324L5.98666 56.6347L10.69 45.8285L59.9446 48.7771C59.6031 49.013 59.2034 49.2965 58.7591 49.6248C57.2942 50.7073 55.3395 52.2803 53.383 54.2418C49.4887 58.1461 45.5 63.6769 45.5 70L45.5 70.0058Z" fill="white" stroke="#121212"/>
<path d="M9.87633 45.9449C9.89844 45.9017 9.91893 45.8621 9.93772 45.8261L24.9015 46.698L24.9309 90.6982H5.89507C4.41126 84.4418 3.91853 77.9834 4.43631 71.567L4.43717 71.5564L4.43757 71.5457C4.76652 62.8415 6.18658 56.33 7.51953 52.0026C8.18607 49.8387 8.83096 48.2205 9.30709 47.147C9.54515 46.6102 9.74103 46.2095 9.87633 45.9449Z" fill="white" stroke="#121212"/>
<path d="M127.115 209.063C127.421 208.838 127.771 208.573 128.157 208.272C129.56 207.174 131.432 205.582 133.306 203.605C137.037 199.67 140.853 194.127 140.853 187.873V187.861L140.853 187.849C140.491 180.147 137.673 172.783 132.838 166.866L179.602 164.025L182.002 175.064L182.499 187.481L181.011 200.379L177.657 209.063H127.115Z" fill="white" stroke="#121212"/>
<path d="M178.569 209.002C178.549 209.047 178.531 209.087 178.514 209.125H163.611L161.111 165.214L179.999 164.104C181.839 170.262 182.697 176.682 182.539 183.119L182.539 183.13L182.539 183.141C182.719 191.86 181.672 198.44 180.585 202.831C180.041 205.027 179.487 206.676 179.071 207.773C178.863 208.321 178.69 208.731 178.569 209.002Z" fill="white" stroke="#121212"/>
<path d="M462.017 231.619L452.384 255.92L455.919 229.09L462.017 231.619Z" fill="white" stroke="#121212"/>
<path d="M462.94 232.003L469.366 234.682L453.237 256.482L462.94 232.003Z" fill="white" stroke="#121212"/>
<path d="M486.37 170.026V164.082H602.065V170.026H486.37Z" fill="white" stroke="#121212"/>
<path d="M538.525 183.671V150.407H549.85V183.671H538.525Z" fill="white" stroke="#121212"/>
<path d="M635.38 255.253L626.706 231.5L631.945 229.306L635.38 255.253Z" fill="white" stroke="#121212"/>
<path d="M635.051 257.268L618.527 234.926L625.783 231.887L635.051 257.268Z" fill="white" stroke="#121212"/>
<path d="M461.266 233.534L450.889 229.393L516.819 58.2658L527.197 62.407L461.266 233.534Z" fill="white" stroke="#121212"/>
<path d="M474.829 238.897L462.213 233.862L528.143 62.7356L540.759 67.7702L474.829 238.897Z" fill="white" stroke="#121212"/>
<path d="M627.437 233.387L560.676 62.5992L571.589 58.2584L637.513 229.381L627.437 233.387Z" fill="white" stroke="#121212"/>
<path d="M613.611 238.923L547.657 67.8002L559.747 62.9695L626.509 233.758L613.611 238.923Z" fill="white" stroke="#121212"/>
<path d="M535.82 58.433V9.17795C535.82 6.87361 536.719 4.66538 538.318 3.0386C539.797 1.53266 541.764 0.639129 543.838 0.514951V67.096C541.764 66.9718 539.797 66.0783 538.318 64.5723C536.719 62.9456 535.82 60.7373 535.82 58.433Z" fill="white" stroke="#121212"/>
<path d="M550.117 64.2664C548.638 65.7723 546.671 66.6659 544.597 66.79V0.514951C546.671 0.639129 548.638 1.53266 550.117 3.0386C551.716 4.66538 552.615 6.87361 552.615 9.17795V58.127C552.615 60.4314 551.716 62.6396 550.117 64.2664Z" fill="white" stroke="#121212"/>
<path d="M514.869 60.8605L514.869 60.8599C511.854 55.1866 512.132 50.1337 514.85 46.507C517.586 42.8569 522.892 40.5159 530.209 40.5159H543.717V104.419C540.073 104.19 536.31 101.459 533.479 95.9859L533.477 95.9815L514.869 60.8605Z" fill="white" stroke="#121212"/>
<path d="M554.807 95.9823C551.918 101.46 548.207 104.188 544.597 104.419V40.5159H558.196C565.513 40.5159 570.826 42.8569 573.566 46.5182C576.288 50.1559 576.567 55.2316 573.536 60.9514C573.536 60.9517 573.536 60.952 573.536 60.9522L554.809 95.9798L554.807 95.9823Z" fill="white" stroke="#121212"/>
</svg>
