<svg width="603" height="243" viewBox="0 0 603 243" fill="none" xmlns="http://www.w3.org/2000/svg">
<path d="M229.547 224.755C229.685 225.989 229.34 227.228 228.584 228.213C227.828 229.197 226.719 229.85 225.492 230.033H187.606C186.379 229.85 185.271 229.197 184.514 228.213C183.758 227.228 183.413 225.989 183.551 224.755V28.0341C183.404 26.7924 183.745 25.5423 184.502 24.5471C185.258 23.552 186.371 22.8896 187.606 22.6997H225.492C226.721 22.8896 227.83 23.5478 228.586 24.5367C229.342 25.5256 229.686 26.7686 229.547 28.0057V224.755Z" fill="#61313E"/>
<path d="M229.547 224.755C229.685 225.989 229.34 227.228 228.584 228.213C227.828 229.197 226.719 229.85 225.492 230.033H187.606C186.379 229.85 185.271 229.197 184.514 228.213C183.758 227.228 183.413 225.989 183.551 224.755V28.0341C183.404 26.7924 183.745 25.5423 184.502 24.5471C185.258 23.552 186.371 22.8896 187.606 22.6997H225.492C226.721 22.8896 227.83 23.5478 228.586 24.5367C229.342 25.5256 229.686 26.7686 229.547 28.0057V224.755Z" fill="#FFC23A"/>
<path d="M187.606 23.0685C186.377 23.2585 185.268 23.9167 184.512 24.9056C183.757 25.8945 183.412 27.1375 183.551 28.3746V225.096C183.412 226.333 183.757 227.576 184.512 228.565C185.268 229.554 186.377 230.212 187.606 230.402H195.915V23.0685H187.606Z" fill="#F9A431"/>
<path d="M229.547 187.84H183.551V195.558H229.547V187.84Z" fill="#EA5645"/>
<path d="M229.547 199.984H183.551V207.702H229.547V199.984Z" fill="#EA5645"/>
<path d="M195.915 187.84H183.551V195.331H195.915V187.84Z" fill="#D13431"/>
<path d="M195.915 199.984H183.551V207.702H195.915V199.984Z" fill="#D13431"/>
<path d="M229.547 41.1148H183.551V102.205H229.547V41.1148Z" fill="#EA5645"/>
<path d="M195.915 41.1148H183.551V102.205H195.915V41.1148Z" fill="#D13431"/>
<path d="M229.547 60.1541H183.551V87.2235H229.547V60.1541Z" fill="#FFC23A"/>
<path d="M195.915 60.1541H183.551V87.3086H195.915V60.1541Z" fill="#F9A431"/>
<path d="M339.999 204.297C339.999 204.297 327.947 221.662 340.737 235.197H192.711L191.973 202.141L339.999 204.297Z" fill="#E7E5E5"/>
<path d="M191.973 222.741C193.93 221.123 216.928 202.311 337.078 209.887C337.468 207.704 338.564 205.71 340.198 204.212L193.958 200.665L191.973 222.741Z" fill="#CECECD"/>
<path d="M193.93 215.647V211.306C193.93 203.673 199.375 204.269 199.375 204.269H342.977V195.501H197.9C196.684 195.437 195.468 195.622 194.327 196.047C193.185 196.472 192.143 197.126 191.264 197.97C191.127 198.088 191.004 198.221 190.896 198.367L190.641 198.622C187.805 201.772 177.284 216.101 189.506 236.332C190.273 237.904 191.494 239.209 193.011 240.08C194.528 240.95 196.27 241.344 198.014 241.212H343.09V232.445H199.375C199.375 232.445 193.93 233.069 193.93 225.436V215.647Z" fill="#FFC23A"/>
<path d="M199.375 232.445C199.375 232.445 193.93 233.069 193.93 225.436V211.249C193.93 203.616 199.375 204.212 199.375 204.212H224.414V195.501H197.9C196.684 195.437 195.468 195.622 194.327 196.047C193.185 196.472 192.143 197.126 191.264 197.97C191.127 198.088 191.004 198.221 190.896 198.367L190.641 198.622C187.805 201.772 177.284 216.101 189.506 236.332C190.273 237.904 191.494 239.209 193.011 240.08C194.528 240.95 196.27 241.344 198.014 241.212H224.528V232.445H199.375Z" fill="#F9A431"/>
<path d="M242.506 219.109C238.502 218.403 234.425 218.194 230.369 218.484C232.889 220.668 234.86 223.413 236.126 226.498C237.392 229.583 237.916 232.922 237.657 236.247L243.499 227.905L251.552 233.92C251.552 233.92 249.029 221.747 242.506 219.109Z" fill="#EA5645"/>
<path d="M289.92 110.661C289.92 110.661 281.725 128.026 290.402 141.561H189.847L189.336 108.504L289.92 110.661Z" fill="#E7E5E5"/>
<path d="M189.336 129.104C190.669 127.487 206.351 108.675 287.935 116.251C288.158 114.215 288.878 112.266 290.033 110.576L190.782 106.972L189.336 129.104Z" fill="#CECECD"/>
<path d="M190.669 122.011V117.669C190.669 110.037 194.384 110.633 194.384 110.633H291.933V101.865H193.363C192.462 101.849 191.572 102.068 190.782 102.501C189.991 102.934 189.327 103.566 188.854 104.333L188.599 104.731C188.608 104.806 188.608 104.882 188.599 104.958C186.756 108.107 179.525 122.436 187.833 142.667C188.107 143.994 188.812 145.192 189.838 146.075C190.864 146.958 192.153 147.476 193.505 147.548H292.075V138.809H194.384C194.384 138.809 190.669 139.433 190.669 131.8V122.011Z" fill="#FFC23A"/>
<path d="M194.384 138.809C194.384 138.809 190.669 139.433 190.669 131.8V117.613C190.669 109.98 194.384 110.576 194.384 110.576H211.398V101.865H193.363C192.462 101.849 191.572 102.068 190.782 102.501C189.991 102.934 189.327 103.566 188.854 104.333L188.599 104.731C188.608 104.806 188.608 104.882 188.599 104.958C186.756 108.107 179.525 122.436 187.833 142.667C188.107 143.994 188.812 145.192 189.838 146.075C190.864 146.958 192.153 147.476 193.505 147.548H211.512V138.809H194.384Z" fill="#F9A431"/>
<path d="M223.677 125.472C220.986 124.769 218.191 124.557 215.425 124.848C215.425 124.848 220.643 130.523 220.388 142.611L224.358 134.269L229.774 140.284C229.774 140.284 228.101 128.111 223.677 125.472Z" fill="#EA5645"/>
<path d="M339.999 14.1873C339.999 14.1873 327.947 31.5526 340.737 45.0872H192.711L191.973 12.116L339.999 14.1873Z" fill="#E7E5E5"/>
<path d="M191.973 32.6308C193.93 31.0134 216.928 12.2011 337.078 19.7771C337.468 17.5942 338.564 15.6 340.198 14.1022L193.958 10.5554L191.973 32.6308Z" fill="#CECECD"/>
<path d="M193.93 25.5371V21.1958C193.93 13.5631 199.375 14.1873 199.375 14.1873H342.977V5.39117H197.9C196.684 5.32679 195.468 5.51264 194.327 5.93724C193.185 6.36184 192.143 7.01616 191.264 7.85976C191.127 7.97807 191.004 8.1113 190.896 8.25701L190.641 8.51238C187.805 11.662 177.284 25.9911 189.506 46.2222C190.273 47.7942 191.494 49.0997 193.011 49.9698C194.528 50.8399 196.27 51.2345 198.014 51.1026H343.09V42.3349H199.375C199.375 42.3349 193.93 42.9591 193.93 35.3264V25.5371Z" fill="#FFC23A"/>
<path d="M199.375 42.3349C199.375 42.3349 193.93 42.9591 193.93 35.3264V21.1391C193.93 13.5631 199.375 14.1873 199.375 14.1873H224.414V5.39117H197.9C196.684 5.32679 195.468 5.51264 194.327 5.93724C193.185 6.36184 192.143 7.01616 191.264 7.85976C191.127 7.97807 191.004 8.1113 190.896 8.25701L190.641 8.51238C187.805 11.662 177.284 25.9911 189.506 46.2222C190.273 47.7942 191.494 49.0997 193.011 49.9698C194.528 50.8399 196.27 51.2345 198.014 51.1026H224.528V42.3349H199.375Z" fill="#F9A431"/>
<path d="M242.506 28.9988C238.502 28.2937 234.425 28.084 230.369 28.3746C232.889 30.5582 234.86 33.3029 236.126 36.3879C237.392 39.473 237.916 42.8122 237.657 46.1371L243.499 37.7949L251.552 43.8104C251.552 43.8104 249.029 31.6377 242.506 28.9988Z" fill="#EA5645"/>
<path d="M372.071 243L397.763 242.319L391.411 7.32065L365.691 8.00164L372.071 243ZM374.085 20.7135C373.997 20.0547 374.048 19.3848 374.235 18.7472C374.423 18.1096 374.742 17.5186 375.173 17.0125C375.603 16.5065 376.135 16.0967 376.734 15.8098C377.334 15.5229 377.986 15.3653 378.65 15.3473C379.314 15.3293 379.975 15.4513 380.588 15.7053C381.202 15.9592 381.756 16.3396 382.213 16.8215C382.67 17.3035 383.021 17.8764 383.243 18.5029C383.464 19.1294 383.552 19.7956 383.5 20.4581C383.588 21.1168 383.536 21.7867 383.349 22.4243C383.162 23.0619 382.842 23.653 382.412 24.159C381.981 24.6651 381.449 25.0749 380.85 25.3617C380.251 25.6486 379.598 25.8062 378.934 25.8242C378.27 25.8422 377.61 25.7203 376.996 25.4663C376.382 25.2123 375.829 24.832 375.371 24.35C374.914 23.868 374.563 23.2952 374.342 22.6687C374.12 22.0421 374.032 21.376 374.085 20.7135Z" fill="#22B1B6"/>
<path d="M397.763 242.092L407.887 241.837L401.421 7.06528L391.298 7.32065L397.763 242.092Z" fill="#22B1B6"/>
<path d="M381.242 32.1112L366.28 32.6523L366.381 35.4596L381.344 34.9184L381.242 32.1112Z" fill="white"/>
<path d="M377.257 40.3078L366.545 40.6952L366.646 43.5024L377.358 43.115L377.257 40.3078Z" fill="white"/>
<path d="M381.824 48.2243L366.861 48.7654L366.962 51.5727L381.925 51.0315L381.824 48.2243Z" fill="white"/>
<path d="M381.734 59.0878L366.771 59.6289L366.873 62.4362L381.836 61.895L381.734 59.0878Z" fill="white"/>
<path d="M377.805 67.3117L367.093 67.6991L367.195 70.5063L377.907 70.1189L377.805 67.3117Z" fill="white"/>
<path d="M382.344 75.2009L367.381 75.742L367.482 78.5493L382.445 78.0081L382.344 75.2009Z" fill="white"/>
<path d="M382.78 88.0865L367.817 88.6276L367.919 91.4349L382.882 90.8937L382.78 88.0865Z" fill="white"/>
<path d="M378.851 96.2821L368.138 96.6695L368.24 99.4767L378.952 99.0893L378.851 96.2821Z" fill="white"/>
<path d="M383.389 104.171L368.426 104.712L368.527 107.52L383.49 106.979L383.389 104.171Z" fill="white"/>
<path d="M383.35 115.656L368.387 116.198L368.489 119.005L383.452 118.464L383.35 115.656Z" fill="white"/>
<path d="M379.392 123.853L368.68 124.24L368.781 127.048L379.493 126.66L379.392 123.853Z" fill="white"/>
<path d="M383.932 131.771L368.969 132.312L369.07 135.119L384.033 134.578L383.932 131.771Z" fill="white"/>
<path d="M383.928 144.247L368.965 144.788L369.066 147.596L384.029 147.055L383.928 144.247Z" fill="white"/>
<path d="M379.941 152.416L369.229 152.803L369.33 155.61L380.043 155.223L379.941 152.416Z" fill="white"/>
<path d="M384.508 160.332L369.545 160.873L369.646 163.68L384.609 163.139L384.508 160.332Z" fill="white"/>
<path d="M385.094 177.353L370.131 177.894L370.232 180.701L385.195 180.16L385.094 177.353Z" fill="white"/>
<path d="M381.165 185.576L370.453 185.964L370.554 188.771L381.266 188.384L381.165 185.576Z" fill="white"/>
<path d="M385.703 193.466L370.74 194.007L370.842 196.814L385.805 196.273L385.703 193.466Z" fill="white"/>
<path d="M385.636 204.158L370.673 204.699L370.774 207.506L385.737 206.965L385.636 204.158Z" fill="white"/>
<path d="M381.679 212.383L370.967 212.77L371.068 215.578L381.78 215.19L381.679 212.383Z" fill="white"/>
<path d="M386.217 220.272L371.254 220.813L371.356 223.62L386.319 223.079L386.217 220.272Z" fill="white"/>
<path d="M86.7957 240.957C72.5725 241.144 58.4031 239.173 44.77 235.112C31.5897 230.814 19.4429 223.829 9.09633 214.597C6.31744 212.305 4.03945 209.465 2.40397 206.255C0.904059 203.36 0.107404 200.152 0.0786609 196.891C0.0573949 191.839 2.03517 186.983 5.58 183.385C7.33944 181.483 9.48361 179.978 11.8697 178.97C14.2559 177.962 16.8292 177.475 19.4184 177.54C23.5503 177.507 27.5632 178.923 30.7614 181.541C38.3702 187.938 46.8487 193.221 55.9428 197.232C65.7645 201.066 76.2577 202.88 86.7957 202.566C94.5254 202.652 102.208 201.355 109.482 198.736C115.736 196.571 121.431 193.044 126.156 188.407C128.15 186.478 129.738 184.169 130.824 181.615C131.91 179.061 132.473 176.315 132.48 173.539C132.643 167.321 130.513 161.261 126.496 156.514C121.413 151.167 115.121 147.119 108.149 144.71C98.015 141.016 87.4922 138.493 76.7855 137.191C65.9456 135.708 55.3155 132.965 45.1103 129.019C36.6958 125.791 28.9478 121.04 22.2542 115.002C16.2111 109.437 11.4837 102.593 8.41575 94.9698C5.1942 86.7389 3.60498 77.9591 3.73677 69.1205C3.3627 55.876 7.28226 42.8659 14.9096 32.0349C22.6263 21.6077 33.08 13.5245 45.1103 8.68263C58.4406 3.22149 72.7328 0.500264 87.136 0.680993C100.802 0.548899 114.39 2.74623 127.318 7.17877C138.309 10.7711 148.539 16.3703 157.491 23.6928C163.956 28.8286 167.161 34.7021 167.161 41.3985C167.137 43.8853 166.624 46.343 165.651 48.6313C164.678 50.9196 163.264 52.9935 161.489 54.7346C159.821 56.6253 157.77 58.1395 155.472 59.1765C153.174 60.2136 150.682 60.75 148.161 60.75C144.866 60.805 141.648 59.7452 139.03 57.7423C134.74 54.1437 129.967 51.1638 124.851 48.8894C118.702 46.0591 112.34 43.7157 105.824 41.8809C91.7854 37.8079 76.841 38.1048 62.9755 42.7321C51.122 47.1302 43.1253 55.0751 43.1253 67.418C42.9069 73.4651 44.9953 79.3689 48.9669 83.932C53.6135 88.7571 59.4099 92.321 65.8112 94.2888C74.4245 97.1731 83.2269 99.4579 92.1553 101.127C104.061 103.212 115.81 106.113 127.318 109.81C136.398 112.59 144.921 116.94 152.5 122.663C159.074 127.823 164.203 134.597 167.388 142.327C170.967 151.525 172.673 161.345 172.407 171.212C172.733 184.67 168.495 197.842 160.383 208.582C152.202 219.217 141.379 227.523 128.992 232.672C115.637 238.281 101.278 241.1 86.7957 240.957Z" fill="#0071BC"/>
<path d="M85.151 0.681C60.5934 8.51239 26.2526 22.8699 24.0407 42.874C24.0407 43.4131 24.0407 42.874 24.0407 64.6373C24.0407 82.6836 24.0407 86.1169 25.2034 91.3094C27.2421 99.4751 31.1222 107.065 36.5463 113.498C44.054 118.797 52.2003 123.125 60.7919 126.38C64.6769 127.629 69.0723 128.594 69.0723 128.594C71.426 129.133 73.2125 129.417 74.205 129.615C89.065 132.629 103.535 137.322 117.337 143.604C120.885 145.407 123.838 148.195 125.844 151.634C127.082 153.828 127.899 156.233 128.254 158.727C126.183 155.956 123.741 153.483 120.995 151.378C118.367 149.436 115.51 147.825 112.488 146.583C105.906 143.716 99.0706 141.474 92.0702 139.887C85.2947 138.258 78.43 137.026 71.511 136.198C31.8106 128.452 18.0289 113.498 11.4216 101.127C6.98293 92.6021 4.35404 83.2508 3.70011 73.6606C3.04618 64.0704 4.38135 54.4485 7.62174 45.3994C10.9912 37.1632 15.8671 29.6284 21.999 23.1821C44.8551 0.198631 77.9482 0.766124 85.151 0.681Z" fill="#0061BC"/>
<path d="M49.5624 84.5847H7.02623L9.86197 61.885V42.0228L58.0696 44.8602C58.0696 44.8602 43.8909 53.3726 43.8909 64.7224C43.9747 71.7312 45.933 78.5895 49.5624 84.5847Z" fill="#FFC23A"/>
<path d="M24.0691 84.5847H5.26807C3.78912 78.6236 3.29106 72.4612 3.79349 66.3398C4.41735 50.1095 9.1814 42.0228 9.1814 42.0228L24.0407 42.874L24.0691 84.5847Z" fill="#F9A431"/>
<path d="M124.426 154.358L168.55 151.804L167.019 174.504L168.182 194.366H118.499C118.499 194.366 132.48 185.485 132.48 174.248C132.129 166.896 129.289 159.881 124.426 154.358Z" fill="#FFC23A"/>
<path d="M151.564 152.797L170.223 151.719C172.048 157.584 172.9 163.709 172.747 169.85C173.087 186.109 168.777 194.423 168.777 194.423H153.974L151.564 152.797Z" fill="#F9A431"/>
<path d="M168.182 194.479C168.182 194.479 157.065 229.522 108.291 238.942C79.4563 244.621 49.5435 239.854 23.8989 225.493C31.1271 227.579 38.4886 229.172 45.9326 230.26C59.2192 232.205 72.6919 232.538 86.0584 231.253C116.993 229.178 146.164 216.093 168.295 194.366L168.182 194.479Z" fill="#0061BC"/>
<path d="M429.779 211.816L425.866 241.014L436.528 214.569L429.779 211.816Z" fill="#1E4C7E"/>
<path d="M425.866 241.014L443.589 217.463L436.528 214.569L425.866 241.014Z" fill="#16385C"/>
<path d="M568.503 151.719H458.42V158.16H568.503V151.719Z" fill="#1E4C7E"/>
<path d="M519.247 139.035H507.62V170.815H519.247V139.035Z" fill="#1E4C7E"/>
<path d="M596.606 212.015L590.679 214.455L600.491 240.872L596.606 212.015Z" fill="#1E4C7E"/>
<path d="M590.679 214.455L582.824 217.69L600.519 241.212L600.491 240.872L590.679 214.455Z" fill="#16385C"/>
<path d="M487.347 53.4358L424.813 213.018L435.479 217.203L498.013 57.6204L487.347 53.4358Z" fill="#00C949"/>
<path d="M498.029 57.5815L435.495 217.164L448.273 222.177L510.807 62.5946L498.029 57.5815Z" fill="#00A149"/>
<path d="M539.551 53.4294L528.378 57.799L591.7 217.066L602.079 213.008L539.551 53.4294Z" fill="#00C949"/>
<path d="M528.378 57.799L516.099 62.6227L578.655 222.201L591.7 217.066L528.378 57.799Z" fill="#00A149"/>
<path d="M505.068 8.51238V54.1955C505.068 56.4531 505.964 58.6183 507.56 60.2146C509.155 61.811 511.319 62.7078 513.575 62.7078V0C511.319 0 509.155 0.896837 507.56 2.49322C505.964 4.0896 505.068 6.25475 505.068 8.51238Z" fill="#FEBA11"/>
<path d="M513.348 0V62.4241C515.605 62.4241 517.768 61.5273 519.364 59.9309C520.959 58.3345 521.855 56.1693 521.855 53.9117V8.51238C521.855 6.25476 520.959 4.0896 519.364 2.49322C517.768 0.896837 515.605 0 513.348 0Z" fill="#FE9711"/>
<path d="M500.247 37.114C486.267 37.114 479.546 45.9101 485.36 56.664L502.913 89.2381C505.749 94.6292 509.633 97.3248 513.462 97.3248V37.114H500.247Z" fill="#F2555C"/>
<path d="M526.648 37.114H513.348V97.3248C517.148 97.3248 520.976 94.6292 523.869 89.2381L541.536 56.7492C547.377 45.9101 540.628 37.114 526.648 37.114Z" fill="#F13D3C"/>
</svg>
